<svg xmlns="http://www.w3.org/2000/svg" width="259" height="354" viewBox="0 0 259 354">
  <g fill="none" fill-rule="evenodd" transform="translate(.252 -.002)">
    <path fill="#030D54" d="M256.728433,211.963 C258.858433,206.114 260.428433,195.844 252.738433,190.271 C251.788433,183.851 247.608433,181.194 243.698433,178.958 L243.688433,178.938 C240.608433,170.462 237.158433,168.608 228.218433,167.461 C224.728433,159.197 216.868433,155.001 206.207433,156.292 C202.355433,152.913 194.171433,146.623 184.079433,149.594 C175.727433,146.103 166.938433,143.603 158.828433,148.516 C149.460433,145.608 144.088433,146.153 138.298433,149.518 C133.801433,148.368 126.968433,147.143 120.351433,149.153 C117.350433,144.89 115.673433,142.706 105.212433,141.221 C96.7034334,140.013 98.7524334,126.605 95.8184334,116.627 C93.4354334,108.522 88.3724334,105.882 86.8054334,104.504 C88.1994334,94.225 85.3024334,90.438 82.1744334,86.917 C78.8654334,58.855 74.4394334,47.138 70.1884334,40.337 C68.0054334,36.845 64.6374334,33.014 60.8964334,30.391 C60.7564334,22.987 56.8944334,9.916 49.4454334,11.311 C43.7734334,3.504 36.4084334,-2.84217094e-14 30.9634334,-2.84217094e-14 C25.3604334,-2.84217094e-14 20.4144334,4.995 21.8814334,11.548 C22.5074334,14.347 23.9604334,17.552 24.4624334,18.765 C20.5394334,17.615 11.7504334,15.492 10.0654334,19.982 C9.4514334,21.618 10.6244334,25.673 21.4574334,35.116 C16.4544334,39.154 16.4424334,45.219 18.3044334,47.896 C11.6104334,51.955 5.4834334,56.894 1.2564334,60.696 C-1.3925666,63.081 1.3844334,66.852 0.743433402,68.395 C-0.472566598,71.321 -0.231566598,75.366 1.7234334,76.932 C7.4604334,81.525 20.2804334,83.107 28.1544334,81.554 C28.6004334,84.254 29.4654334,85.944 32.5084334,88.42 C31.7414334,89.732 30.1084334,93.746 29.5054334,95.555 C28.0374334,99.959 28.9684334,103.175 30.3054334,104.834 C26.6164334,110.008 28.8604334,115.667 31.4274334,118.601 C29.0984334,124.477 26.3234334,126.277 25.5314334,133.517 C24.9084334,139.221 27.8544334,143.875 29.3664334,145.485 C28.2304334,148.878 27.0124334,152.416 27.0774334,155.426 C27.1514334,158.884 28.5234334,161.947 31.4944334,163.656 C31.2384334,164.182 27.6644334,170.861 26.8834334,175.496 C26.1584334,179.797 27.5574334,183.251 28.6854334,184.874 C26.9144334,189.601 26.8024334,194.218 27.7024334,197.483 C28.6564334,200.945 30.0834334,203.725 34.0154334,206.209 C33.2394334,212.464 32.9774334,220.955 36.7354334,228.637 C39.3554334,233.993 46.0504334,239.065 47.0184334,241.167 C48.6724334,244.76 47.7844334,250.948 53.5474334,254.965 C53.5254334,255.376 51.8444334,264.268 62.0564334,270.327 C64.7374334,271.918 66.3824334,273.421 65.9804334,277.97 C65.6544334,281.657 65.0714334,288.533 70.7234334,294.667 C70.0654334,300.214 69.8674334,305.265 77.3794334,311.052 C74.8684334,323.542 82.5144334,328.613 86.5434334,330.245 L86.5434334,335.79 C86.5434334,339.132 85.4644334,339.417 83.2464334,340.56 C79.6044334,342.437 76.6424334,344.517 76.6424334,348.527 C76.6424334,351.053 78.8794334,353.363 81.6104334,353.75 C83.0214334,353.949 90.7664334,353.741 92.8484334,353.741 C97.8004334,353.741 99.8974334,350.322 99.8974334,345.343 C99.8974334,342.885 99.8974334,336.063 99.8974334,329.659 C100.393433,329.46 100.872433,329.234 101.325433,328.975 C106.408433,326.061 108.735433,321.456 108.140433,312.606 C113.421433,307.493 111.521433,301.453 111.115433,299.546 C113.600433,297.615 113.822433,295.795 113.822433,295.795 C113.822433,295.795 116.160433,297.976 116.357433,301.603 C116.555433,305.257 115.668433,306.4 115.668433,309.979 C115.668433,313.034 116.384433,315.799 117.732433,317.97 C119.181433,320.445 121.339433,322.452 123.925433,323.719 L123.925433,335.79 C123.925433,339.132 122.847433,339.417 120.629433,340.56 C116.986433,342.437 114.025433,344.517 114.025433,348.527 C114.025433,351.053 116.261433,353.363 118.991433,353.75 C120.402433,353.949 128.148433,353.741 130.231433,353.741 C135.182433,353.741 137.279433,350.322 137.279433,345.343 C137.279433,342.046 137.279433,330.905 137.279433,323.445 C138.562433,322.747 144.933433,318.915 144.933433,311.801 C144.933433,306.769 144.026433,306.305 144.026433,303.516 C144.026433,300.479 146.353433,299.119 146.353433,293.807 C146.353433,289.396 143.904433,287.106 143.973433,284.726 C144.088433,280.75 148.159433,279.859 148.730433,273.874 C149.224433,268.699 147.079433,265.508 145.870433,264.218 C154.361433,270.788 161.430433,258.066 166.563433,255.626 C166.532433,261.549 166.739433,275.037 171.801433,280.61 C172.546433,281.43 172.950433,282.497 172.876433,283.602 C172.623433,287.406 172.280433,294.348 172.856433,299.162 C173.647433,305.785 175.876433,310.315 180.167433,312.962 C180.035433,316.722 181.297433,325.362 187.652433,328.572 C188.126433,328.812 188.603433,329.023 189.078433,329.213 L189.078433,335.79 C189.078433,339.132 187.999433,339.417 185.781433,340.56 C182.139433,342.437 179.177433,344.517 179.177433,348.527 C179.177433,351.053 181.414433,353.363 184.144433,353.75 C185.555433,353.949 193.300433,353.741 195.383433,353.741 C200.335433,353.741 202.432433,350.322 202.432433,345.343 C202.432433,342.873 202.432433,335.998 202.432433,329.567 C209.659433,325.9 211.439433,318.493 211.721433,315.71 C213.308433,315.358 215.978433,314.089 217.758433,310.761 C217.928433,316.565 221.448433,321.526 226.458433,323.772 L226.458433,335.79 C226.458433,339.132 225.378433,339.417 223.168433,340.56 C219.518433,342.437 216.558433,344.517 216.558433,348.527 C216.558433,351.053 218.798433,353.363 221.528433,353.75 C222.938433,353.949 230.678433,353.741 232.768433,353.741 C237.718433,353.741 239.818433,350.322 239.818433,345.343 C239.818433,341.988 239.818433,330.507 239.818433,323.052 C244.148433,320.518 247.128433,315.835 247.198433,310.502 C247.218433,308.396 246.798433,306.39 246.028433,304.572 C245.328433,302.942 245.508433,301.071 246.388433,299.535 C247.248433,298.032 248.158433,296.444 248.218433,294.05 C248.338433,288.555 244.888433,285.905 244.888433,282.612 C244.888433,277.233 248.288433,276.448 249.158433,270.16 C249.698433,266.249 248.988433,263.583 247.148433,258.664 C245.648433,254.659 248.228433,252.605 249.378433,249.171 C250.488433,245.833 249.408433,241.392 248.158433,238.189 C251.338433,234.832 260.838433,224.434 256.728433,211.963"/>
    <path fill="#FFFFFE" d="M34.5364334,58.729 C34.2044334,59.123 33.4554334,58.977 32.4524334,58.619 C31.4594334,58.269 29.6234334,57.421 28.0334334,57.627 C26.4434334,57.833 25.6144334,58.922 25.2004334,59.043 C24.9884334,59.109 24.6054334,58.96 24.4444334,58.586 C23.7324334,56.923 25.4484334,55.289 26.4434334,54.832 C29.1724334,53.581 31.9234334,54.526 33.8394334,56.697 C34.4644334,57.406 34.8684334,58.335 34.5364334,58.729"/>
    <path fill="#63FFD4" d="M250.578433,201.255 C249.898433,196.912 245.898433,197.288 245.098433,191.482 C244.348433,186.135 238.238433,186.69 236.578433,182.025 C234.498433,176.183 234.848433,176.48 226.378433,174.994 C219.678433,173.818 222.048433,165.859 213.528433,164.077 C207.714433,162.859 205.385433,166.181 201.647433,162.591 C198.259433,159.337 192.805433,155.882 185.311433,157.273 C177.461433,158.73 173.994433,149.247 161.913433,155.684 C157.339433,158.121 150.921433,151.228 142.107433,156.278 C137.417433,158.966 130.468433,154.209 120.522433,156.975 C113.261433,158.993 116.148433,149.695 104.873433,148.95 C88.7564334,147.886 91.6524334,128.724 88.4664334,119.051 C86.2144334,112.214 83.2674334,112.88 80.2914334,108.714 C77.6564334,105.026 80.2914334,100.977 79.1014334,96.216 C78.1424334,92.381 75.2254334,92.933 74.3394334,85.503 C71.9464334,65.42 68.2824334,51.706 63.6274334,44.438 C60.5984334,39.709 56.0514334,35.826 53.1744334,35.048 C54.4064334,24.745 50.0374334,18.393 48.3264334,19.042 C47.5484334,19.338 47.9264334,24.14 47.9264334,24.14 C47.9264334,24.14 43.1914334,10.522 32.0824334,7.867 C29.9854334,7.366 29.1414334,8.385 29.3814334,9.647 C30.4544334,15.313 34.6874334,25.599 41.6064334,34.32 C33.7224334,34.32 25.0824334,39.723 25.0904334,44.064 C25.0954334,46.475 37.0654334,39.858 38.6304334,43.247 C39.6184334,45.386 35.3724334,48.426 36.8454334,50.389 C38.6304334,52.77 48.9014334,47.706 49.9384334,50.389 C51.0364334,53.229 43.3914334,55.15 43.3914334,57.531 C43.3914334,60.393 49.9384334,61.102 49.9384334,63.482 C49.9384334,67.247 41.0114334,64.672 41.0114334,67.053 C41.0114334,69.434 48.7364334,70.682 48.1524334,73.6 C47.5574334,76.576 42.2014334,74.79 37.4404334,77.171 C35.3444334,78.219 35.0264334,81.079 37.4404334,82.527 C40.4164334,84.313 41.2704334,86.222 40.2584334,89.079 C38.8964334,92.925 38.0354334,94.43 36.8454334,98.001 C36.0034334,100.526 36.8454334,101.572 38.0354334,101.572 C40.4894334,101.572 41.0114334,103.358 38.0354334,106.929 C36.1204334,109.226 35.5574334,111.164 36.8454334,112.88 C38.6304334,115.261 39.2254334,116.451 39.2254334,118.237 C39.2254334,124.891 30.9004334,130.878 33.8694334,138.472 C35.3874334,142.354 40.1834334,141.127 36.1794334,149.446 C34.4024334,153.139 34.0834334,156.854 36.8454334,158.112 C40.4804334,159.769 40.3274334,162.069 37.0644334,169.359 C30.7514334,183.461 38.5774334,178.724 35.6544334,188.465 C33.8694334,194.417 35.6544334,197.987 37.4404334,199.178 C41.0114334,201.558 42.2014334,202.749 41.6064334,208.7 C41.1174334,213.584 41.2234334,221.016 43.6144334,225.002 C48.7124334,233.505 53.7374334,233.648 55.8904334,244.41 C57.0804334,250.361 59.0004334,247.885 60.6514334,250.361 C61.8414334,252.147 61.2464334,253.932 61.2464334,256.313 C61.2464334,265.26 71.9594334,262.264 73.7444334,274.762 C74.2564334,278.346 72.5544334,281.309 74.3394334,286.07 C75.3844334,288.856 79.1164334,291.333 78.5064334,294.998 C77.9104334,298.569 77.9104334,301.544 80.2914334,303.33 C82.3114334,304.845 86.1934334,308.077 85.0524334,312.257 C83.2674334,318.804 86.8384334,323.565 92.1944334,323.565 C96.1874334,323.565 101.121433,321.78 100.527433,315.233 C100.186433,311.484 100.404433,308.903 102.907433,306.901 C105.883433,304.52 102.087433,300.321 103.502433,296.783 C104.693433,293.807 107.269433,293.451 108.382433,290.654 C110.207433,286.068 107.713433,284.084 107.191433,281.475 C106.257433,276.806 108.514433,275.164 110.046433,270.898 C111.594433,266.586 109.605433,261.562 109.012433,257.782 C108.555433,255.495 108.159433,252.897 107.848433,250.117 C106.913433,241.739 108.242433,233.678 110.275433,233.505 C112.307433,233.333 114.657433,240.673 115.802433,250.087 C116.107433,252.595 116.650433,254.952 117.126433,257.065 C119.356433,256.477 121.220433,255.782 125.372433,258.177 C126.947433,259.086 130.125433,261.049 133.519433,259.606 C140.230433,256.754 143.929433,249.099 148.841433,256.098 C152.323433,261.059 157.093433,248.346 165.484433,247.219 C165.336433,238.723 166.551433,233.833 168.448433,233.672 C170.817433,233.471 173.349433,240.709 174.430433,253.462 C174.538433,254.737 174.644433,255.991 174.742433,257.217 C175.508433,263.938 174.895433,272.22 178.491433,275.953 C184.387433,282.073 177.121433,301.829 184.443433,306.064 C190.134433,309.355 185.689433,314.628 189.799433,320.109 C193.370433,324.87 199.892433,324.132 202.297433,319.514 C205.373433,313.612 202.214433,311.519 208.844433,307.394 C214.888433,303.631 211.057433,294.451 211.422433,289.299 C211.820433,283.69 217.928433,285.222 219.558433,281.309 C220.948433,277.985 217.358433,272.715 222.538433,267.621 C227.928433,262.312 230.338433,257.306 229.028433,252.06 C228.998433,251.97 228.968433,251.879 228.938433,251.79 C228.838433,251.458 228.738433,251.125 228.638433,250.791 C228.588433,250.647 228.538433,250.505 228.488433,250.361 C228.378433,250.084 228.288433,249.776 228.248433,249.446 C227.908433,248.198 227.658433,246.93 227.698433,245.635 C227.768433,243.459 228.768433,241.566 229.908433,239.744 C240.268433,223.196 238.258433,210.199 235.198433,197.553 C234.918433,196.399 234.848433,195.219 235.278433,194.952 C235.698433,194.684 236.408433,194.847 237.828433,196.284 C239.248433,197.721 240.488433,200.042 241.458433,202.654 C242.528433,205.556 243.598433,209.097 244.068433,213.147 C244.538433,217.195 244.608433,221.721 243.798433,226.467 C243.258433,229.612 242.238433,232.824 240.768433,235.692 C240.398433,236.436 239.978433,237.16 239.528433,237.863 C244.878433,235.075 252.648433,222.728 249.918433,214.506 C247.868433,208.317 251.778433,209.01 250.578433,201.255"/>
    <path fill="#030D54" d="M48.2704334,96.955 C46.7904334,97.075 45.6144334,101.139 46.0114334,106.034 C46.4084334,110.928 48.2274334,114.798 49.7074334,114.678 C51.1874334,114.558 51.7684334,110.493 51.3714334,105.599 C50.9744334,100.705 49.7504334,96.834 48.2704334,96.955 Z M44.9184334,125.513 C43.4384334,125.633 42.2624334,129.698 42.6594334,134.592 C43.0564334,139.486 44.8744334,143.356 46.3544334,143.237 C47.8344334,143.117 48.2374334,139.052 47.8404334,134.158 C47.4434334,129.263 46.3984334,125.393 44.9184334,125.513 Z M52.2044334,193.428 C50.2634334,186.537 47.3844334,181.319 45.7724334,181.773 C44.1604334,182.227 44.4274334,188.181 46.3674334,195.072 C48.3074334,201.962 51.1874334,207.181 52.7984334,206.727 C54.4104334,206.273 54.1444334,200.319 52.2044334,193.428 Z M62.5954334,152.48 C62.7284334,151.216 62.5804334,148.951 62.1464334,146.474 C61.7794334,144.379 61.1244334,142.429 60.3794334,140.985 C59.5444334,139.37 58.5944334,138.39 57.8064334,138.553 C56.9804334,138.724 56.4044334,140.034 56.1564334,141.952 C55.9284334,143.707 56.1374334,145.463 56.5534334,147.555 C57.1094334,150.354 57.6534334,151.649 58.6824334,153.437 C59.4284334,154.73 60.6184334,155.644 61.2644334,155.398 C62.1094334,155.078 62.4424334,153.927 62.5954334,152.48 Z M53.7764334,165.265 C53.0254334,160.809 50.5274334,155.92 48.6894334,156.322 C46.8504334,156.724 46.9424334,161.903 47.7164334,166.098 C48.7494334,171.698 51.8054334,175.953 53.4224334,175.6 C55.0384334,175.247 54.4564334,169.3 53.7764334,165.265 Z M186.537433,175.803 C182.794433,174.917 179.465433,175.439 179.103433,176.97 C178.740433,178.501 181.482433,180.459 185.225433,181.346 C188.969433,182.232 192.298433,181.709 192.660433,180.179 C193.022433,178.648 190.281433,176.689 186.537433,175.803 Z M184.735433,254.685 C182.946433,255.146 182.493433,259.383 183.722433,264.149 C184.951433,268.915 187.397433,272.404 189.185433,271.943 C190.973433,271.482 190.273433,267.734 189.044433,262.968 C187.815433,258.202 186.523433,254.223 184.735433,254.685 Z M60.4054334,226.966 C58.8524334,227.71 59.2134334,233.69 62.0674334,239.647 C64.9214334,245.604 69.1874334,249.281 70.7404334,248.537 C72.2944334,247.792 70.5474334,242.908 67.6934334,236.952 C64.8394334,230.995 61.9594334,226.222 60.4054334,226.966 Z M181.217433,166.467 C181.384433,164.885 177.563433,162.529 172.550433,161.999 C167.537433,161.469 163.229433,162.967 163.062433,164.549 C162.895433,166.131 166.931433,167.198 171.944433,167.728 C176.958433,168.257 181.049433,168.049 181.217433,166.467 Z M217.458433,182.239 C218.358433,180.678 215.438433,176.645 210.489433,173.773 C205.542433,170.902 200.447433,170.28 199.541433,171.841 C198.634433,173.402 202.563433,175.606 207.510433,178.478 C212.458433,181.349 216.548433,183.8 217.458433,182.239 Z M191.529433,244.572 C190.720433,244.81 189.534433,243.349 188.100433,240.936 C186.655433,238.521 184.908433,235.172 182.976433,231.483 C181.046433,227.793 180.689433,227.25 179.535433,224.678 C178.382433,222.112 177.871433,220.297 178.527433,219.777 C179.169433,219.268 180.877433,220.172 183.002433,222.23 C187.957433,227.783 190.908433,233.718 192.092433,239.496 C192.556433,242.425 192.310433,244.344 191.529433,244.572 L191.529433,244.572 Z"/>
  </g>
</svg>
